Hanif_Shallow_2_5_grf.mot
version=1
nRows=58
nColumns=19
inDegrees=yes
endheader
time	right_ground_force_vx	right_ground_force_vy	right_ground_force_vz	right_ground_force_px	right_ground_force_py	right_ground_force_pz	right_ground_torque_x	right_ground_torque_y	right_ground_torque_z	left_ground_force_vx	left_ground_force_vy	left_ground_force_vz	left_ground_force_px	left_ground_force_py	left_ground_force_pz	left_ground_torque_x	left_ground_torque_y	left_ground_torque_z
2.575000	-1.817560	245.283000	49.429400	0.224047	0.000000	-1.430120	-18.617100	-0.766443	6.011330	-4.243480	244.847000	-51.148800	0.225001	0.000000	-0.965781	15.410800	-0.711521	6.592830
2.580000	-1.763430	245.210000	49.864200	0.223863	0.000000	-1.429840	-18.680200	-0.790176	5.960040	-5.078590	240.735000	-50.304900	0.226093	0.000000	-0.966915	15.437700	-0.789046	6.788570
2.585000	-1.952380	248.103000	49.803600	0.223557	0.000000	-1.430700	-18.686700	-0.676163	5.973750	-6.000390	243.265000	-49.183200	0.226839	0.000000	-0.967011	15.630000	-0.659063	7.006740
2.590000	-2.002530	249.593000	49.627000	0.223520	0.000000	-1.431600	-18.574200	-0.620822	6.008600	-7.487340	240.979000	-47.829000	0.227787	0.000000	-0.968309	15.815100	-0.662469	7.188340
2.595000	-2.906930	250.737000	49.528000	0.222982	0.000000	-1.431510	-18.687100	-0.604429	5.910640	-8.823840	243.663000	-46.588000	0.227665	0.000000	-0.968508	16.052000	-0.622961	7.216950
2.600000	-3.763160	255.071000	50.394900	0.223285	0.000000	-1.431280	-19.071600	-0.551115	6.117700	-10.319200	248.155000	-46.053000	0.227888	0.000000	-0.967288	16.057600	-0.556592	7.385290
2.605000	-3.492800	259.064000	50.466200	0.223988	0.000000	-1.432170	-19.139600	-0.489115	6.405150	-10.658800	255.572000	-46.125300	0.229069	0.000000	-0.968773	16.916900	-0.526922	7.892760
2.610000	-4.394570	265.613000	51.251500	0.223258	0.000000	-1.431520	-19.800700	-0.419002	6.390020	-12.008300	260.112000	-46.479500	0.229422	0.000000	-0.968485	17.156700	-0.513338	8.129660
2.615000	-4.704610	269.935000	51.892400	0.222821	0.000000	-1.432100	-19.966800	-0.442298	6.369730	-12.320700	265.838000	-46.078400	0.229437	0.000000	-0.968376	17.503500	-0.518585	8.290220
2.620000	-4.698680	273.246000	51.675300	0.223753	0.000000	-1.432590	-20.080300	-0.303400	6.730280	-12.736800	271.200000	-46.280000	0.230365	0.000000	-0.968121	17.791700	-0.550073	8.710230
2.625000	-4.583510	277.243000	51.996100	0.222551	0.000000	-1.433130	-20.224600	-0.264191	6.485000	-12.538200	273.962000	-46.670000	0.230122	0.000000	-0.968455	18.063600	-0.646743	8.741660
2.630000	-5.158120	282.989000	51.934600	0.222589	0.000000	-1.433220	-20.624800	-0.041488	6.669060	-13.360000	277.062000	-46.498200	0.230343	0.000000	-0.968447	18.275300	-0.669255	8.902640
2.635000	-5.435660	287.271000	52.294900	0.222641	0.000000	-1.432390	-21.175500	-0.011490	6.790470	-13.651100	278.059000	-45.213800	0.230487	0.000000	-0.968524	18.369700	-0.785000	8.974380
2.640000	-5.747660	291.641000	52.127900	0.222211	0.000000	-1.432850	-21.368600	0.153440	6.787150	-14.008300	282.146000	-45.597400	0.229847	0.000000	-0.968103	18.523300	-0.843247	8.924780
2.645000	-6.187800	298.281000	52.044800	0.220622	0.000000	-1.432830	-21.862600	0.315892	6.472460	-14.754700	286.684000	-45.188300	0.229734	0.000000	-0.968161	18.846300	-0.916352	9.031910
2.650000	-5.691990	302.431000	52.361700	0.220558	0.000000	-1.433140	-22.070400	0.451525	6.553650	-14.523100	288.766000	-45.661000	0.229408	0.000000	-0.967392	18.759100	-0.998395	9.010180
2.655000	-5.643910	307.535000	52.539200	0.220097	0.000000	-1.433390	-22.368900	0.704117	6.551150	-14.777600	292.784000	-46.931200	0.229453	0.000000	-0.968473	19.347600	-1.182710	9.189450
2.660000	-5.050430	311.356000	53.037100	0.219001	0.000000	-1.434320	-22.354000	0.801894	6.285860	-14.396700	297.565000	-47.297900	0.228948	0.000000	-0.967969	19.505400	-1.268180	9.181820
2.665000	-4.896550	315.342000	53.405900	0.218382	0.000000	-1.435980	-22.117100	1.092520	6.205870	-13.888000	299.393000	-47.429400	0.228799	0.000000	-0.967709	19.536600	-1.252550	9.179500
2.670000	-4.396240	317.759000	53.446900	0.217776	0.000000	-1.435290	-22.501700	1.228140	6.067110	-13.413700	300.672000	-47.357000	0.228430	0.000000	-0.967442	19.538000	-1.421230	9.120250
2.675000	-3.267820	319.393000	53.694500	0.216943	0.000000	-1.434840	-22.754600	1.419560	5.842250	-12.949700	303.449000	-46.995300	0.227821	0.000000	-0.966827	19.526100	-1.564740	9.014950
2.680000	-3.057190	323.247000	53.814200	0.216119	0.000000	-1.436270	-22.565600	1.608000	5.658030	-13.078500	303.809000	-46.557700	0.227036	0.000000	-0.967259	19.684400	-1.661300	8.789980
2.685000	-2.688520	328.672000	54.101600	0.215994	0.000000	-1.436190	-22.969000	1.785750	5.724050	-12.273600	305.425000	-46.613000	0.226773	0.000000	-0.966126	19.433500	-1.792560	8.759410
2.690000	-2.203890	330.904000	53.921600	0.214937	0.000000	-1.435900	-23.214800	1.868600	5.403500	-11.881200	304.193000	-46.148500	0.226631	0.000000	-0.966877	19.582600	-1.897350	8.690510
2.695000	-1.013830	336.486000	54.387200	0.214009	0.000000	-1.436270	-23.473400	2.117850	5.190860	-10.849400	308.362000	-46.204400	0.226619	0.000000	-0.967196	19.934300	-2.012370	8.798520
2.700000	-0.320236	339.828000	54.691300	0.213739	0.000000	-1.437390	-23.318100	2.194720	5.146490	-9.764910	312.032000	-46.351700	0.225589	0.000000	-0.966154	19.829100	-2.131520	8.569100
2.705000	0.505578	341.341000	54.903300	0.213779	0.000000	-1.438150	-23.155600	2.407090	5.206600	-8.440490	313.541000	-46.258400	0.225897	0.000000	-0.966598	20.046000	-2.185760	8.698080
2.710000	1.804520	343.690000	54.753800	0.213099	0.000000	-1.437630	-23.480500	2.525430	4.998890	-8.077270	312.752000	-46.520600	0.225475	0.000000	-0.966720	20.033800	-2.377530	8.573880
2.715000	2.672040	344.584000	54.662500	0.212574	0.000000	-1.438630	-23.190800	2.585210	4.823310	-7.106130	312.987000	-46.398700	0.224267	0.000000	-0.965857	19.763000	-2.372350	8.180100
2.720000	3.250020	345.842000	54.246200	0.211920	0.000000	-1.437960	-23.502200	2.727080	4.616790	-6.456420	315.721000	-46.516500	0.224338	0.000000	-0.966743	20.208100	-2.519720	8.282730
2.725000	3.279100	346.894000	54.204000	0.211633	0.000000	-1.437980	-23.565900	2.778220	4.533360	-5.729290	317.225000	-46.961100	0.224760	0.000000	-0.966668	20.270000	-2.503690	8.451390
2.730000	4.429530	349.008000	54.427600	0.211463	0.000000	-1.438980	-23.347900	2.910130	4.505430	-5.384400	319.925000	-47.279500	0.224474	0.000000	-0.966277	20.312900	-2.607970	8.436670
2.735000	4.935370	349.901000	54.505800	0.210934	0.000000	-1.438780	-23.472000	3.108930	4.351410	-5.086070	321.111000	-46.460600	0.223974	0.000000	-0.966019	20.298700	-2.512890	8.269310
2.740000	5.812250	350.265000	54.210500	0.210736	0.000000	-1.437990	-23.765000	3.309070	4.301490	-5.365770	322.359000	-45.984800	0.224309	0.000000	-0.967334	20.806000	-2.576800	8.412420
2.745000	6.611770	350.283000	54.284000	0.210447	0.000000	-1.439370	-23.276100	3.243810	4.181790	-4.731940	323.855000	-45.497700	0.224055	0.000000	-0.966148	20.510100	-2.654370	8.358900
2.750000	6.975660	353.898000	53.355800	0.210186	0.000000	-1.438950	-23.660700	3.303440	4.114200	-4.864410	324.716000	-45.230900	0.224076	0.000000	-0.967023	20.850600	-2.688360	8.387510
2.755000	7.501890	354.435000	53.830300	0.210330	0.000000	-1.438740	-23.763700	3.442260	4.192000	-4.503480	323.609000	-43.877300	0.224191	0.000000	-0.966256	20.526000	-2.655270	8.371130
2.760000	7.267630	353.638000	53.052200	0.209542	0.000000	-1.438380	-23.843400	3.394450	3.885880	-4.204740	321.905000	-43.368600	0.223858	0.000000	-0.966894	20.619000	-2.630230	8.209960
2.765000	7.561040	354.783000	52.305800	0.209947	0.000000	-1.438890	-23.739700	3.280850	4.014450	-4.000670	321.425000	-42.386000	0.223496	0.000000	-0.965786	20.229900	-2.673150	8.069030
2.770000	6.906590	355.644000	51.594200	0.209734	0.000000	-1.438780	-23.841600	3.298660	3.945840	-3.839300	319.720000	-42.098600	0.223043	0.000000	-0.965832	20.136400	-2.779150	7.892700
2.775000	6.615120	354.620000	50.928500	0.209688	0.000000	-1.438830	-23.756200	3.303470	3.916930	-3.749610	318.287000	-41.702200	0.223337	0.000000	-0.966073	20.121700	-2.728820	7.943960
2.780000	5.913240	352.063000	49.884700	0.209683	0.000000	-1.438890	-23.570100	3.239940	3.880360	-4.019190	316.198000	-41.090800	0.223472	0.000000	-0.966062	19.990500	-2.752890	7.937730
2.785000	5.985340	352.514000	49.218900	0.209773	0.000000	-1.439270	-23.468400	3.231400	3.907790	-3.263960	314.945000	-41.208000	0.222800	0.000000	-0.965811	19.822400	-2.761900	7.691720
2.790000	6.734160	351.956000	48.203700	0.209369	0.000000	-1.439320	-23.407400	3.241040	3.741570	-3.688450	314.161000	-41.375900	0.222872	0.000000	-0.966049	19.853600	-2.747180	7.702540
2.795000	6.546410	349.987000	47.729900	0.209471	0.000000	-1.439780	-23.114000	3.310740	3.768580	-2.960460	311.608000	-40.996900	0.223006	0.000000	-0.966813	19.922100	-2.807780	7.687340
2.800000	6.680890	348.686000	47.683600	0.208594	0.000000	-1.440060	-22.930500	3.298970	3.443490	-2.017920	312.646000	-40.652700	0.222547	0.000000	-0.966469	19.869000	-2.941620	7.567590
2.805000	6.632260	345.668000	47.996800	0.208543	0.000000	-1.439230	-23.018500	3.319590	3.409360	-1.702310	312.322000	-40.775000	0.222468	0.000000	-0.966676	19.909600	-3.027140	7.546080
2.810000	6.714830	346.825000	47.765300	0.209102	0.000000	-1.440500	-22.650800	3.341960	3.616360	-1.266260	313.436000	-40.108800	0.221690	0.000000	-0.966361	19.875800	-3.088090	7.315340
2.815000	7.379250	345.622000	47.966500	0.207707	0.000000	-1.439950	-22.758500	3.420180	3.121990	-0.798746	313.705000	-40.161400	0.221591	0.000000	-0.966469	19.921200	-3.257100	7.307540
2.820000	7.504370	346.250000	47.497000	0.208555	0.000000	-1.440440	-22.628900	3.353200	3.410410	-0.703230	313.721000	-39.305700	0.220782	0.000000	-0.965971	19.764700	-3.341070	7.046240
2.825000	7.283840	347.052000	47.064900	0.208460	0.000000	-1.441200	-22.420100	3.346720	3.380000	-0.968477	314.182000	-39.006700	0.221278	0.000000	-0.966172	19.861000	-3.470980	7.226690
2.830000	7.312340	345.893000	46.349100	0.208194	0.000000	-1.441650	-22.189200	3.346320	3.270430	-1.188350	314.540000	-39.334300	0.221462	0.000000	-0.966063	19.852800	-3.542670	7.308710
2.835000	7.286780	341.900000	46.097000	0.208196	0.000000	-1.441120	-22.114700	3.272560	3.230680	-1.288390	311.905000	-38.890200	0.221466	0.000000	-0.966231	19.740700	-3.595930	7.257810
2.840000	6.674700	340.650000	45.683700	0.207910	0.000000	-1.441390	-21.946000	3.364380	3.136250	-1.521400	313.042000	-39.219100	0.220580	0.000000	-0.966496	19.899100	-3.642390	7.011840
2.845000	6.658270	340.317000	44.932300	0.207315	0.000000	-1.442170	-21.662400	3.241620	2.904670	-1.843820	313.944000	-39.198300	0.220234	0.000000	-0.965622	19.686400	-3.604010	6.915700
2.850000	6.091430	336.925000	44.572200	0.206555	0.000000	-1.441640	-21.626300	3.229030	2.622410	-1.635960	314.571000	-40.032700	0.220166	0.000000	-0.964927	19.503600	-3.579970	6.914740
2.855000	5.523150	338.022000	43.715400	0.207254	0.000000	-1.442370	-21.454200	3.250770	2.867950	-1.948240	314.336000	-40.804800	0.219660	0.000000	-0.965082	19.542900	-3.660080	6.774930
2.860000	5.651500	335.976000	43.470800	0.206786	0.000000	-1.442200	-21.378400	3.387310	2.709620	-1.819920	312.441000	-40.502200	0.219430	0.000000	-0.965425	19.531000	-3.709360	6.668300
